<svg xmlns="http://www.w3.org/2000/svg" viewBox="0 0 226.34 226.34"><defs><style>.cls-1{fill:#b2b2b2;}</style></defs><g id="Layer_2" data-name="Layer 2"><rect x="113.17" y="3.89" width="1.69" height="13.87"/><circle class="cls-1" cx="113.17" cy="113.17" r="113.17"/><rect x="113.17" y="4.59" width="1.69" height="13.87"/><rect x="102.54" y="5.06" width="1.69" height="13.87" transform="translate(-0.69 10.87) rotate(-6)"/><rect x="92.02" y="6.63" width="1.69" height="13.87" transform="translate(-0.79 19.6) rotate(-12)"/><rect x="81.72" y="9.3" width="1.69" height="13.87" transform="translate(-0.98 26.31) rotate(-18)"/><rect x="71.75" y="13.03" width="1.69" height="13.87" transform="translate(-1.85 31.25) rotate(-24)"/><rect x="62.23" y="17.78" width="1.69" height="13.87" transform="translate(-3.91 34.85) rotate(-30)"/><rect x="53.26" y="23.51" width="1.69" height="13.87" transform="translate(-7.56 37.62) rotate(-36)"/><rect x="44.94" y="30.13" width="1.69" height="13.87" transform="translate(-13.04 40.16) rotate(-42)"/><rect x="37.35" y="37.59" width="1.69" height="13.87" transform="translate(-20.45 43.12) rotate(-48)"/><rect x="30.59" y="45.81" width="1.69" height="13.87" transform="translate(-29.71 47.17) rotate(-54)"/><rect x="113.17" y="4.59" width="1.69" height="13.87"/><rect x="113.17" y="4.59" width="1.69" height="13.87"/><rect x="113.17" y="4.59" width="1.69" height="13.87"/><rect x="113.17" y="4.59" width="1.69" height="13.87"/><rect x="113.17" y="4.59" width="1.69" height="13.87"/><rect x="113.17" y="4.59" width="1.69" height="13.87"/><rect x="112.33" y="4.59" width="3.38" height="26.25"/><rect x="64.49" y="16.96" width="3.38" height="26.25" transform="translate(-6.17 37.12) rotate(-30)"/><rect x="29.24" y="51.59" width="3.38" height="26.25" transform="translate(-40.58 59.14) rotate(-60)"/><rect x="16.03" y="99.2" width="3.38" height="26.25" transform="translate(-94.61 130.04) rotate(-90)"/><rect x="28.39" y="147.04" width="3.38" height="26.25" transform="translate(-93.59 266.3) rotate(-120)"/><rect x="63.02" y="182.29" width="3.38" height="26.25" transform="translate(23.04 397) rotate(-150)"/><rect x="110.64" y="195.5" width="3.38" height="26.25" transform="translate(224.65 417.25) rotate(-180)"/><rect x="158.48" y="183.13" width="3.38" height="26.25" transform="translate(397 286.14) rotate(150)"/><rect x="193.73" y="148.5" width="3.38" height="26.25" transform="translate(433.1 73.21) rotate(120)"/><rect x="206.94" y="100.89" width="3.38" height="26.25" transform="translate(322.64 -94.61) rotate(90)"/><rect x="194.57" y="53.05" width="3.38" height="26.25" transform="translate(155.44 -136.88) rotate(60)"/><rect x="159.94" y="17.8" width="3.38" height="26.25" transform="matrix(0.87, 0.5, -0.5, 0.87, 37.12, -76.67)"/><rect x="24.72" y="54.68" width="1.69" height="13.87" transform="translate(-40.58 52.95) rotate(-60)"/><rect x="19.81" y="64.12" width="1.69" height="13.87" transform="translate(-52.66 61.02) rotate(-66)"/><rect x="15.92" y="74.02" width="1.69" height="13.87" transform="translate(-65.41 71.88) rotate(-72)"/><rect x="13.08" y="84.28" width="1.69" height="13.87" transform="translate(-78.19 85.86) rotate(-78)"/><rect x="11.32" y="94.77" width="1.69" height="13.87" transform="translate(-90.25 103.18) rotate(-84)"/><rect x="10.68" y="105.39" width="1.69" height="13.87" transform="translate(-100.8 123.85) rotate(-90)"/><rect x="11.15" y="116.02" width="1.69" height="13.87" transform="translate(-109.04 147.73) rotate(-96)"/><rect x="12.72" y="126.54" width="1.69" height="13.87" transform="translate(-114.17 174.5) rotate(-102)"/><rect x="15.39" y="136.84" width="1.69" height="13.87" transform="translate(-115.48 203.65) rotate(-108)"/><rect x="19.12" y="146.81" width="1.69" height="13.87" transform="translate(-112.36 234.52) rotate(-114)"/><rect x="23.87" y="156.33" width="1.69" height="13.87" transform="translate(-104.31 266.3) rotate(-120)"/><rect x="29.6" y="165.3" width="1.69" height="13.87" transform="translate(-91.01 298.1) rotate(-126)"/><rect x="36.22" y="173.62" width="1.69" height="13.87" transform="translate(-72.31 328.92) rotate(-132)"/><rect x="43.68" y="181.21" width="1.69" height="13.87" transform="translate(-48.27 357.76) rotate(-138)"/><rect x="51.9" y="187.97" width="1.69" height="13.87" transform="translate(-19.15 383.59) rotate(-144)"/><rect x="60.77" y="193.84" width="1.69" height="13.87" transform="translate(14.59 405.46) rotate(-150)"/><rect x="70.21" y="198.75" width="1.69" height="13.87" transform="translate(52.31 422.49) rotate(-156)"/><rect x="80.11" y="202.65" width="1.69" height="13.87" transform="translate(93.19 433.92) rotate(-162)"/><rect x="90.37" y="205.48" width="1.69" height="13.87" transform="translate(136.26 439.16) rotate(-168)"/><rect x="100.86" y="207.24" width="1.69" height="13.87" transform="translate(180.47 437.8) rotate(-174)"/><rect x="111.48" y="207.88" width="1.69" height="13.87" transform="translate(224.65 429.63) rotate(-180)"/><rect x="122.11" y="207.41" width="1.69" height="13.87" transform="translate(267.64 414.67) rotate(174)"/><rect x="132.63" y="205.84" width="1.69" height="13.87" transform="matrix(-0.98, 0.21, -0.21, -0.98, 308.28, 393.14)"/><rect x="142.93" y="203.17" width="1.69" height="13.87" transform="translate(345.44 365.49) rotate(162)"/><rect x="152.9" y="199.44" width="1.69" height="13.87" transform="translate(378.13 332.37) rotate(156)"/><rect x="162.42" y="194.69" width="1.69" height="13.87" transform="translate(405.46 294.6) rotate(150)"/><rect x="171.39" y="188.97" width="1.69" height="13.87" transform="translate(426.72 253.15) rotate(144)"/><rect x="179.71" y="182.34" width="1.69" height="13.87" transform="translate(441.39 209.11) rotate(138)"/><rect x="187.3" y="174.88" width="1.69" height="13.87" transform="translate(449.15 163.65) rotate(132)"/><rect x="194.06" y="166.66" width="1.69" height="13.87" transform="translate(449.92 117.96) rotate(126)"/><rect x="199.93" y="157.79" width="1.69" height="13.87" transform="matrix(-0.5, 0.87, -0.87, -0.5, 443.82, 73.21)"/><rect x="204.84" y="148.35" width="1.69" height="13.87" transform="matrix(-0.41, 0.91, -0.91, -0.41, 431.2, 30.54)"/><rect x="208.74" y="138.45" width="1.69" height="13.87" transform="translate(412.61 -9.01) rotate(108)"/><rect x="211.57" y="128.19" width="1.69" height="13.87" transform="translate(388.76 -44.55) rotate(102)"/><rect x="213.33" y="117.7" width="1.69" height="13.87" transform="translate(360.51 -75.33) rotate(96)"/><rect x="213.97" y="107.08" width="1.69" height="13.87" transform="translate(328.83 -100.8) rotate(90)"/><rect x="213.5" y="96.45" width="1.69" height="13.87" transform="translate(294.76 -120.6) rotate(84)"/><rect x="211.93" y="85.93" width="1.69" height="13.87" transform="translate(259.37 -134.57) rotate(78)"/><rect x="209.26" y="75.63" width="1.69" height="13.87" transform="translate(223.7 -142.77) rotate(72)"/><rect x="205.53" y="65.66" width="1.69" height="13.87" transform="translate(188.76 -145.46) rotate(66)"/><rect x="200.78" y="56.14" width="1.69" height="13.87" transform="translate(155.44 -143.07) rotate(60)"/><rect x="195.06" y="47.17" width="1.69" height="13.87" transform="translate(124.53 -136.18) rotate(54)"/><rect x="188.43" y="38.85" width="1.69" height="13.87" transform="translate(96.65 -125.51) rotate(48)"/><rect x="180.97" y="31.26" width="1.69" height="13.87" transform="translate(72.26 -111.85) rotate(42)"/><rect x="172.76" y="24.5" width="1.69" height="13.87" transform="translate(51.63 -96.04) rotate(36)"/><rect x="163.88" y="18.63" width="1.69" height="13.87" transform="translate(34.85 -78.94) rotate(30)"/><rect x="154.44" y="13.72" width="1.69" height="13.87" transform="translate(21.83 -61.37) rotate(24)"/><rect x="144.54" y="9.82" width="1.69" height="13.87" transform="translate(12.29 -44.11) rotate(18)"/><rect x="134.29" y="6.99" width="1.69" height="13.87" transform="translate(5.85 -27.79) rotate(12)"/><rect x="123.79" y="5.23" width="1.69" height="13.87" transform="translate(1.95 -12.96) rotate(6)"/></g></svg>