<svg xmlns="http://www.w3.org/2000/svg" viewBox="0 0 721.4 537.56"><defs><style>.cls-1{font-size:30px;font-family:Poppins-Regular, Poppins;}.cls-2{opacity:0.32;}.cls-3{fill:#b2b2b2;}</style></defs><g id="Layer_1" data-name="Layer 1"><path d="M105.5,22.7V6.4H99.6V4.3a15,15,0,0,0,2.2-.2,4.79,4.79,0,0,0,2-.7,4.71,4.71,0,0,0,1.5-1.3,4.85,4.85,0,0,0,.8-2.1h2.1V22.7Zm8.6-17.9a6.77,6.77,0,0,1,1.4-2.5A6.14,6.14,0,0,1,117.9.6a7.94,7.94,0,0,1,3.2-.6,8.63,8.63,0,0,1,2.8.4,8.36,8.36,0,0,1,2.3,1.2,6.18,6.18,0,0,1,1.5,2,6.09,6.09,0,0,1,.6,2.8,7.63,7.63,0,0,1-.5,2.7,7.19,7.19,0,0,1-1.2,2.1,6.9,6.9,0,0,1-1.8,1.6,24.26,24.26,0,0,1-2,1.4,23.92,23.92,0,0,0-2.1,1.3c-.7.5-1.3.9-1.9,1.3a10.61,10.61,0,0,0-1.5,1.5,4.06,4.06,0,0,0-.8,1.9h11.6v2.4H113.3a10.74,10.74,0,0,1,.7-3.4,10.1,10.1,0,0,1,1.4-2.5,12.1,12.1,0,0,1,2-1.9c.7-.5,1.5-1,2.3-1.5,1-.6,1.8-1.1,2.5-1.6a14.28,14.28,0,0,0,1.8-1.5,6.19,6.19,0,0,0,1.1-1.7,4.64,4.64,0,0,0,.4-2.1,3.29,3.29,0,0,0-.4-1.7,3.81,3.81,0,0,0-.9-1.3,3.92,3.92,0,0,0-1.4-.8,4.67,4.67,0,0,0-1.7-.3,3.94,3.94,0,0,0-2,.5,4.36,4.36,0,0,0-1.4,1.3,4.94,4.94,0,0,0-.8,1.8,6.8,6.8,0,0,0-.2,2H114A5.46,5.46,0,0,1,114.1,4.8Zm52.4,33.4V21.9h-5.9V19.7a15,15,0,0,0,2.2-.2,4.79,4.79,0,0,0,2-.7,4.71,4.71,0,0,0,1.5-1.3,4.85,4.85,0,0,0,.8-2.1h2.1V38.1h-2.7Zm32.4,21a6.77,6.77,0,0,1,1.4-2.5,6.14,6.14,0,0,1,2.4-1.7,7.94,7.94,0,0,1,3.2-.6,8.63,8.63,0,0,1,2.8.4A8.36,8.36,0,0,1,211,56a6.18,6.18,0,0,1,1.5,2,6.09,6.09,0,0,1,.6,2.8,7.63,7.63,0,0,1-.5,2.7,7.19,7.19,0,0,1-1.2,2.1,6.9,6.9,0,0,1-1.8,1.6,24.26,24.26,0,0,1-2,1.4,23.92,23.92,0,0,0-2.1,1.3c-.7.5-1.3.9-1.9,1.3a10.61,10.61,0,0,0-1.5,1.5,4.06,4.06,0,0,0-.8,1.9h11.6V77H198a10.74,10.74,0,0,1,.7-3.4,10.1,10.1,0,0,1,1.4-2.5,12.1,12.1,0,0,1,2-1.9c.7-.5,1.5-1,2.3-1.5,1-.6,1.8-1.1,2.5-1.6a14.28,14.28,0,0,0,1.8-1.5,6.19,6.19,0,0,0,1.1-1.7,4.64,4.64,0,0,0,.4-2.1,3.29,3.29,0,0,0-.4-1.7,3.81,3.81,0,0,0-.9-1.3,3.92,3.92,0,0,0-1.4-.8,4.67,4.67,0,0,0-1.7-.3,3.94,3.94,0,0,0-2,.5,4.36,4.36,0,0,0-1.4,1.3,4.94,4.94,0,0,0-.8,1.8,6.8,6.8,0,0,0-.2,2h-2.7a6.46,6.46,0,0,1,.2-3.1Zm18.7,55.9h.9a7.77,7.77,0,0,0,1.6-.2,3.69,3.69,0,0,0,1.4-.7,2.73,2.73,0,0,0,.9-1.2,4.19,4.19,0,0,0,.4-1.6,3.16,3.16,0,0,0-1.2-2.7,4.56,4.56,0,0,0-2.9-.9,3.81,3.81,0,0,0-1.9.4,3.48,3.48,0,0,0-1.3,1.1,4,4,0,0,0-.8,1.6,5.82,5.82,0,0,0-.3,1.9h-2.7a9.43,9.43,0,0,1,.5-3,7.28,7.28,0,0,1,1.3-2.3,7.12,7.12,0,0,1,2.2-1.5,7.29,7.29,0,0,1,3-.5,7.66,7.66,0,0,1,2.7.4,7.56,7.56,0,0,1,2.2,1.1,5.75,5.75,0,0,1,1.5,1.9,5.92,5.92,0,0,1,.5,2.7,4.39,4.39,0,0,1-.9,2.7,5.48,5.48,0,0,1-2.2,1.8v.1a4.86,4.86,0,0,1,3.1,2,6.09,6.09,0,0,1,1,3.6,7.31,7.31,0,0,1-.6,3,6.2,6.2,0,0,1-1.7,2.2,6.61,6.61,0,0,1-2.5,1.3,10.32,10.32,0,0,1-3,.4,9.59,9.59,0,0,1-3.1-.5,7.22,7.22,0,0,1-2.4-1.4,5.13,5.13,0,0,1-1.5-2.3,7.77,7.77,0,0,1-.5-3.1H214a5.27,5.27,0,0,0,1.3,3.6,4.59,4.59,0,0,0,3.6,1.4,5.82,5.82,0,0,0,1.9-.3,5.07,5.07,0,0,0,1.6-.9,3.81,3.81,0,0,0,1.1-1.4,3.92,3.92,0,0,0,.4-1.8,4.06,4.06,0,0,0-.4-1.9,5,5,0,0,0-1-1.4,2.75,2.75,0,0,0-1.5-.8,10.79,10.79,0,0,0-1.9-.3,8.08,8.08,0,0,0-1.6.1V115c-.1.1,0,.1.1.1Zm-3.4,58.7v2.4h-3.1v5.3h-2.6v-5.3h-10v-2.6l10.3-14.8H211v15Zm-5.6-11.1L201,173.8h7.6Zm-44.9,36.7-1.2,6.5.1.1a3.47,3.47,0,0,1,1.9-1.2,6.56,6.56,0,0,1,2.3-.4,8.21,8.21,0,0,1,2.8.5,5.13,5.13,0,0,1,2.3,1.5,7.76,7.76,0,0,1,1.6,2.4,9,9,0,0,1,.1,6.2,6.08,6.08,0,0,1-1.5,2.4,7.39,7.39,0,0,1-2.5,1.7,9.15,9.15,0,0,1-3.5.6,8.63,8.63,0,0,1-2.8-.4,8.36,8.36,0,0,1-2.3-1.2,5.26,5.26,0,0,1-1.6-2,6.09,6.09,0,0,1-.6-2.8h2.7a4.19,4.19,0,0,0,.4,1.6,4.12,4.12,0,0,0,1,1.3,3.77,3.77,0,0,0,1.5.9,5.82,5.82,0,0,0,1.9.3,5.23,5.23,0,0,0,1.8-.3,4,4,0,0,0,1.5-1,4,4,0,0,0,1-1.7,6.05,6.05,0,0,0,.4-2.4,5.22,5.22,0,0,0-.4-2.1,4.88,4.88,0,0,0-1-1.6,6.45,6.45,0,0,0-1.6-1.1,4.64,4.64,0,0,0-2.1-.4,4.75,4.75,0,0,0-2.4.6,5.48,5.48,0,0,0-1.8,1.6l-2.3-.1,2.1-11.8h11.2v2.4h-9Zm-47.3,14.7a3.74,3.74,0,0,0-2.6-.9,4.65,4.65,0,0,0-2.8.8,4.74,4.74,0,0,0-1.6,2.1,11.46,11.46,0,0,0-.8,2.8c-.1,1-.2,1.9-.3,2.8l.1.1a5.89,5.89,0,0,1,2.4-2.3,6.71,6.71,0,0,1,3.3-.7,6.53,6.53,0,0,1,2.9.6,6,6,0,0,1,2.2,1.6,8.84,8.84,0,0,1,1.4,2.3,9.29,9.29,0,0,1,.5,2.9,8.24,8.24,0,0,1-.4,2.6,7,7,0,0,1-1.3,2.4,8.36,8.36,0,0,1-2.3,1.8,8,8,0,0,1-3.6.7,7.34,7.34,0,0,1-4.1-1,7.41,7.41,0,0,1-2.4-2.6,10.24,10.24,0,0,1-1.1-3.5,24,24,0,0,1-.3-3.7,21.54,21.54,0,0,1,.4-4.5,11.26,11.26,0,0,1,1.4-3.9,7.46,7.46,0,0,1,2.6-2.7,7.21,7.21,0,0,1,4-1,5.84,5.84,0,0,1,6.4,5.8h-2.7a4,4,0,0,0-1.3-2.5Zm-4.9,7.5a4.18,4.18,0,0,0-1.5,1.1,5.07,5.07,0,0,0-.9,1.6,6.82,6.82,0,0,0,0,4,4.17,4.17,0,0,0,.9,1.6,5.83,5.83,0,0,0,1.5,1.1,5.2,5.2,0,0,0,4,0,3.81,3.81,0,0,0,1.4-1.1,5.07,5.07,0,0,0,.9-1.6,5.82,5.82,0,0,0,.3-1.9,6.45,6.45,0,0,0-.3-2,6,6,0,0,0-.8-1.6,4.86,4.86,0,0,0-1.4-1.1,4,4,0,0,0-2-.4,4.45,4.45,0,0,0-2.1.3ZM64.9,203.4a39.76,39.76,0,0,0-2.7,5,35.75,35.75,0,0,0-1.9,5.5,27.4,27.4,0,0,0-.9,5.5h-3a26.18,26.18,0,0,1,.9-5.6,29.22,29.22,0,0,1,1.9-5.2,45.31,45.31,0,0,1,2.7-4.8,26.91,26.91,0,0,1,3.3-4.1H53.5V197H68.2v2.3a22.77,22.77,0,0,0-3.3,4.1ZM15.2,162.1a6.55,6.55,0,0,1,1.5-1.8,5.29,5.29,0,0,1,2.1-1.1,6.9,6.9,0,0,1,2.5-.4,10.23,10.23,0,0,1,3.2.5,5.39,5.39,0,0,1,2.1,1.3,6.15,6.15,0,0,1,1.2,1.9,5.22,5.22,0,0,1,.4,2.1,5.38,5.38,0,0,1-.8,2.8,4.85,4.85,0,0,1-2.3,1.9,4.86,4.86,0,0,1,3,2.1,6.91,6.91,0,0,1,1,3.6,6.53,6.53,0,0,1-.6,2.9,6,6,0,0,1-1.6,2.2,7,7,0,0,1-2.4,1.3,9.25,9.25,0,0,1-2.9.4,9.48,9.48,0,0,1-3-.4,6.18,6.18,0,0,1-2.4-1.3,6.75,6.75,0,0,1-2.2-5.2,6,6,0,0,1,1-3.5,6.43,6.43,0,0,1,2.9-2.2,4.75,4.75,0,0,1-2.3-1.9,4.9,4.9,0,0,1-.9-2.8,3.87,3.87,0,0,1,.5-2.4Zm2.9,16.2a5.13,5.13,0,0,0,3.5,1.2,5.82,5.82,0,0,0,1.9-.3,3.77,3.77,0,0,0,1.5-.9,7.1,7.1,0,0,0,1-1.4,3.43,3.43,0,0,0,.3-1.8,3.29,3.29,0,0,0-.4-1.7,7.1,7.1,0,0,0-1-1.4,3.77,3.77,0,0,0-1.5-.9,5.66,5.66,0,0,0-1.8-.3,5.82,5.82,0,0,0-1.9.3,3.77,3.77,0,0,0-1.5.9,3.59,3.59,0,0,0-1,1.4,4.78,4.78,0,0,0-.4,1.8,3.44,3.44,0,0,0,1.3,3.1Zm-.3-12a2.44,2.44,0,0,0,.9,1.1,5.39,5.39,0,0,0,1.3.7,7.77,7.77,0,0,0,1.6.2,3.62,3.62,0,0,0,2.7-1,3.39,3.39,0,0,0,1.1-2.7,3.17,3.17,0,0,0-1.1-2.6,4,4,0,0,0-2.7-.9,7.72,7.72,0,0,0-1.5.2,3.29,3.29,0,0,0-1.3.7,2.84,2.84,0,0,0-.8,1.1,3.34,3.34,0,0,0-.3,1.5A2.42,2.42,0,0,0,17.8,166.3ZM4.5,125.1a4.47,4.47,0,0,0,2.8.9,3.86,3.86,0,0,0,3.7-2.2,15.1,15.1,0,0,0,1.4-6.6l-.1-.1a5.41,5.41,0,0,1-2.2,2.3,5.53,5.53,0,0,1-3.1.8,7.45,7.45,0,0,1-3.1-.6A7.33,7.33,0,0,1,1.6,118a7.22,7.22,0,0,1-1.4-2.4,10.07,10.07,0,0,1-.5-3.1,9.43,9.43,0,0,1,.5-3,7.63,7.63,0,0,1,1.5-2.3,6.08,6.08,0,0,1,2.4-1.5,7.29,7.29,0,0,1,3-.5,9.43,9.43,0,0,1,3,.5,5.89,5.89,0,0,1,2.5,1.7,8.53,8.53,0,0,1,1.7,3.3,19.84,19.84,0,0,1,.6,5.3c0,3.9-.6,6.9-1.9,9a6.39,6.39,0,0,1-6,3.2,7.72,7.72,0,0,1-4.7-1.4,5.65,5.65,0,0,1-2.1-4.4H2.9A5.89,5.89,0,0,0,4.5,125.1Zm7.2-14.2a4.37,4.37,0,0,0-2.4-2.7,4.21,4.21,0,0,0-2-.4,4.64,4.64,0,0,0-2.1.4,4.07,4.07,0,0,0-1.4,1.2,5.31,5.31,0,0,0-.8,1.7,6.48,6.48,0,0,0-.2,2,5.66,5.66,0,0,0,.3,1.8,3.77,3.77,0,0,0,.9,1.5,7.55,7.55,0,0,0,1.4,1.1,3.42,3.42,0,0,0,1.8.4,4.06,4.06,0,0,0,1.9-.4,4.18,4.18,0,0,0,1.5-1.1,5.07,5.07,0,0,0,.9-1.6,5.82,5.82,0,0,0,.3-1.9A3.38,3.38,0,0,0,11.7,110.9ZM13.6,76V59.8H7.8V57.6a15,15,0,0,0,2.2-.2,4.79,4.79,0,0,0,2-.7,4.71,4.71,0,0,0,1.5-1.3,4.85,4.85,0,0,0,.8-2.1h2.1V76Zm8.3-13.7a10.9,10.9,0,0,1,.3-2.6,13.7,13.7,0,0,1,.7-2.4,6.9,6.9,0,0,1,1.3-2,7.71,7.71,0,0,1,2.1-1.4,7,7,0,0,1,3-.5,8.53,8.53,0,0,1,3,.5,6,6,0,0,1,2.1,1.4,5.33,5.33,0,0,1,1.3,2,10.88,10.88,0,0,1,.7,2.4,11.53,11.53,0,0,1,.3,2.6c0,.9.1,1.8.1,2.6a23.48,23.48,0,0,1-.1,2.6,20.61,20.61,0,0,1-.3,2.6,13.7,13.7,0,0,1-.7,2.4,8.58,8.58,0,0,1-1.3,2,6.43,6.43,0,0,1-2.1,1.4,7,7,0,0,1-3,.5,8.53,8.53,0,0,1-3-.5,6,6,0,0,1-2.1-1.4,5.33,5.33,0,0,1-1.3-2,10.88,10.88,0,0,1-.7-2.4,11.53,11.53,0,0,1-.3-2.6c0-.9-.1-1.8-.1-2.6A21.75,21.75,0,0,0,21.9,62.3Zm2.9,5.4a14.46,14.46,0,0,0,.5,3,7.22,7.22,0,0,0,1.4,2.4,3.34,3.34,0,0,0,2.7,1,3.47,3.47,0,0,0,2.7-1,5.27,5.27,0,0,0,1.4-2.4,9.43,9.43,0,0,0,.5-3c.1-1.1.1-2,.1-2.9V63a13.55,13.55,0,0,0-.2-2,14.16,14.16,0,0,0-.4-2,5.31,5.31,0,0,0-.8-1.7,4.89,4.89,0,0,0-1.3-1.2,4,4,0,0,0-2-.4,4.21,4.21,0,0,0-2,.4,3.74,3.74,0,0,0-1.3,1.2,4.47,4.47,0,0,0-.8,1.7,11.8,11.8,0,0,0-.4,2c-.1.7-.1,1.3-.2,2v1.8A27.15,27.15,0,0,1,24.8,67.7Z" transform="translate(1.04 1.81)"/><path d="M53.5,38.2V21.9H47.6V19.7a15,15,0,0,0,2.2-.2,4.79,4.79,0,0,0,2-.7,4.71,4.71,0,0,0,1.5-1.3,4.85,4.85,0,0,0,.8-2.1h2.1V38.1H53.5Zm15.6,0V21.9H63.2V19.7a15,15,0,0,0,2.2-.2,4.79,4.79,0,0,0,2-.7,4.71,4.71,0,0,0,1.5-1.3,4.85,4.85,0,0,0,.8-2.1h2.1V38.1H69.1Z" transform="translate(1.04 1.81)"/><text class="cls-1" transform="translate(348.01 25.47)">12</text><text class="cls-1" transform="translate(414.92 40.07)">1</text><text class="cls-1" transform="translate(458.76 130.58)">3</text><text class="cls-1" transform="translate(445.32 78.81)">2</text><text class="cls-1" transform="translate(443.75 183.77)">4</text><text class="cls-1" transform="translate(404.61 222.14)">5</text><text class="cls-1" transform="translate(351.91 236.57)">6</text><text class="cls-1" transform="translate(300.65 222.27)">7</text><text class="cls-1" transform="translate(259.51 183.77)">8</text><text class="cls-1" transform="translate(245.22 130.07)">9</text><text class="cls-1" transform="translate(253.32 78.87)">10</text><text class="cls-1" transform="translate(303.15 40.07)">11</text></g><g id="Layer_2" data-name="Layer 2"><circle class="cls-2" cx="129.34" cy="408.22" r="129.34"/><rect x="608.23" y="13.66" width="1.69" height="13.87"/><circle class="cls-3" cx="608.23" cy="122.95" r="113.17"/><rect x="608.23" y="14.37" width="1.69" height="13.87"/><rect x="596.57" y="13.02" width="1.69" height="13.87" transform="translate(2.22 64.37) rotate(-6)"/><rect x="586.04" y="14.6" width="1.69" height="13.87" transform="translate(9.38 124.3) rotate(-12)"/><rect x="575.75" y="17.27" width="1.69" height="13.87" transform="translate(21.78 181.17) rotate(-18)"/><rect x="565.78" y="21" width="1.69" height="13.87" transform="translate(38.66 234.69) rotate(-24)"/><rect x="556.26" y="25.75" width="1.69" height="13.87" transform="translate(59.33 284.74) rotate(-30)"/><rect x="547.29" y="31.47" width="1.69" height="13.87" transform="translate(83.14 331.33) rotate(-36)"/><rect x="538.97" y="38.1" width="1.69" height="13.87" transform="translate(109.55 374.58) rotate(-42)"/><rect x="531.38" y="45.56" width="1.69" height="13.87" transform="translate(138.12 414.7) rotate(-48)"/><rect x="524.62" y="53.77" width="1.69" height="13.87" transform="translate(168.52 451.94) rotate(-54)"/><rect x="608.23" y="14.37" width="1.69" height="13.87"/><rect x="608.23" y="14.37" width="1.69" height="13.87"/><rect x="608.23" y="14.37" width="1.69" height="13.87"/><rect x="608.23" y="14.37" width="1.69" height="13.87"/><rect x="608.23" y="14.37" width="1.69" height="13.87"/><rect x="608.23" y="14.37" width="1.69" height="13.87"/><rect x="607.39" y="14.37" width="3.38" height="26.25"/><rect x="558.51" y="24.92" width="3.38" height="26.25" transform="translate(57.06 287.01) rotate(-30)"/><rect x="523.26" y="59.55" width="3.38" height="26.25" transform="translate(200.57 492.77) rotate(-60)"/><rect x="510.05" y="107.17" width="3.38" height="26.25" transform="translate(392.48 633.84) rotate(-90)"/><rect x="522.42" y="155.01" width="3.38" height="26.25" transform="translate(641.59 707.9) rotate(-120)"/><rect x="557.05" y="190.26" width="3.38" height="26.25" transform="translate(941.96 660.7) rotate(-150)"/><rect x="604.66" y="203.47" width="3.38" height="26.25" transform="translate(1213.74 435) rotate(-180)"/><rect x="652.5" y="191.1" width="3.38" height="26.25" transform="translate(1323.89 55.81) rotate(150)"/><rect x="687.75" y="156.47" width="3.38" height="26.25" transform="translate(1182.07 -340.87) rotate(120)"/><rect x="700.96" y="108.86" width="3.38" height="26.25" transform="translate(825.67 -578.86) rotate(90)"/><rect x="688.6" y="61.01" width="3.38" height="26.25" transform="translate(410.39 -558.92) rotate(60)"/><rect x="653.97" y="25.77" width="3.38" height="26.25" transform="matrix(0.87, 0.5, -0.5, 0.87, 108.32, -320.81)"/><rect x="518.75" y="62.65" width="1.69" height="13.87" transform="translate(200.57 486.58) rotate(-60)"/><rect x="513.84" y="72.09" width="1.69" height="13.87" transform="translate(234.19 518.88) rotate(-66)"/><rect x="509.94" y="81.99" width="1.69" height="13.87" transform="translate(269.41 549.04) rotate(-72)"/><rect x="507.1" y="92.24" width="1.69" height="13.87" transform="translate(306.36 577.22) rotate(-78)"/><rect x="505.35" y="102.74" width="1.69" height="13.87" transform="translate(345.25 603.44) rotate(-84)"/><rect x="504.71" y="113.36" width="1.69" height="13.87" transform="translate(386.29 627.65) rotate(-90)"/><rect x="505.17" y="123.99" width="1.69" height="13.87" transform="translate(429.74 649.67) rotate(-96)"/><rect x="506.75" y="134.51" width="1.69" height="13.87" transform="translate(475.81 669.17) rotate(-102)"/><rect x="509.42" y="144.81" width="1.69" height="13.87" transform="translate(524.66 685.74) rotate(-108)"/><rect x="513.15" y="154.77" width="1.69" height="13.87" transform="translate(576.36 698.85) rotate(-114)"/><rect x="517.9" y="164.29" width="1.69" height="13.87" transform="translate(630.87 707.9) rotate(-120)"/><rect x="523.62" y="173.26" width="1.69" height="13.87" transform="translate(687.99 712.23) rotate(-126)"/><rect x="530.25" y="181.59" width="1.69" height="13.87" transform="translate(747.4 711.16) rotate(-132)"/><rect x="537.71" y="189.17" width="1.69" height="13.87" transform="translate(808.59 704.02) rotate(-138)"/><rect x="545.92" y="195.94" width="1.69" height="13.87" transform="translate(870.9 690.2) rotate(-144)"/><rect x="554.8" y="201.81" width="1.69" height="13.87" transform="translate(933.51 669.15) rotate(-150)"/><rect x="564.24" y="206.72" width="1.69" height="13.87" transform="translate(995.45 640.48) rotate(-156)"/><rect x="574.14" y="210.61" width="1.69" height="13.87" transform="translate(1055.63 603.94) rotate(-162)"/><rect x="584.39" y="213.45" width="1.69" height="13.87" transform="translate(1112.9 559.45) rotate(-168)"/><rect x="594.89" y="215.2" width="1.69" height="13.87" transform="translate(1166.02 507.14) rotate(-174)"/><rect x="605.51" y="215.85" width="1.69" height="13.87" transform="translate(1213.74 447.38) rotate(-180)"/><rect x="616.14" y="215.38" width="1.69" height="13.87" transform="translate(1254.86 380.73) rotate(174)"/><rect x="626.66" y="213.8" width="1.69" height="13.87" transform="matrix(-0.98, 0.21, -0.21, -0.98, 1288.22, 308)"/><rect x="636.96" y="211.13" width="1.69" height="13.87" transform="translate(1312.81 230.18) rotate(162)"/><rect x="646.92" y="207.4" width="1.69" height="13.87" transform="translate(1327.75 148.49) rotate(156)"/><rect x="656.44" y="202.65" width="1.69" height="13.87" transform="translate(1332.35 64.26) rotate(150)"/><rect x="665.41" y="196.93" width="1.69" height="13.87" transform="translate(1326.14 -21.01) rotate(144)"/><rect x="673.74" y="190.3" width="1.69" height="13.87" transform="translate(1308.91 -105.76) rotate(138)"/><rect x="681.32" y="182.84" width="1.69" height="13.87" transform="translate(1280.7 -188.37) rotate(132)"/><rect x="688.09" y="174.63" width="1.69" height="13.87" transform="translate(1241.8 -267.26) rotate(126)"/><rect x="693.96" y="165.76" width="1.69" height="13.87" transform="matrix(-0.5, 0.87, -0.87, -0.5, 1192.79, -340.87)"/><rect x="698.87" y="156.32" width="1.69" height="13.87" transform="matrix(-0.41, 0.91, -0.91, -0.41, 1134.48, -407.75)"/><rect x="702.76" y="146.42" width="1.69" height="13.87" transform="translate(1067.91 -466.62) rotate(108)"/><rect x="705.6" y="136.16" width="1.69" height="13.87" transform="translate(994.33 -516.35) rotate(102)"/><rect x="707.35" y="125.67" width="1.69" height="13.87" transform="translate(915.13 -556.04) rotate(96)"/><rect x="708" y="115.05" width="1.69" height="13.87" transform="translate(831.86 -585.05) rotate(90)"/><rect x="707.53" y="104.42" width="1.69" height="13.87" transform="translate(746.11 -602.97) rotate(84)"/><rect x="705.95" y="93.89" width="1.69" height="13.87" transform="translate(659.51 -609.67) rotate(78)"/><rect x="703.28" y="83.59" width="1.69" height="13.87" transform="translate(573.67 -605.3) rotate(72)"/><rect x="699.55" y="73.63" width="1.69" height="13.87" transform="translate(490.16 -590.24) rotate(66)"/><rect x="694.8" y="64.11" width="1.69" height="13.87" transform="translate(410.39 -565.11) rotate(60)"/><rect x="689.08" y="55.14" width="1.69" height="13.87" transform="translate(335.65 -530.76) rotate(54)"/><rect x="682.46" y="46.81" width="1.69" height="13.87" transform="translate(267.06 -488.19) rotate(48)"/><rect x="674.99" y="39.23" width="1.69" height="13.87" transform="translate(205.52 -438.55) rotate(42)"/><rect x="666.78" y="32.46" width="1.69" height="13.87" transform="translate(151.7 -383.08) rotate(36)"/><rect x="657.91" y="26.6" width="1.69" height="13.87" transform="translate(106.06 -323.07) rotate(30)"/><rect x="648.47" y="21.69" width="1.69" height="13.87" transform="translate(68.81 -259.81) rotate(24)"/><rect x="638.57" y="17.79" width="1.69" height="13.87" transform="translate(39.97 -194.57) rotate(18)"/><rect x="628.31" y="14.95" width="1.69" height="13.87" transform="translate(19.33 -128.52) rotate(12)"/><rect x="617.82" y="13.2" width="1.69" height="13.87" transform="translate(6.53 -62.74) rotate(6)"/></g></svg>