<svg xmlns="http://www.w3.org/2000/svg" xmlns:xlink="http://www.w3.org/1999/xlink" viewBox="0 0 226.84 226.75"><defs><style>.cls-1{fill:#fff;}.cls-2{font-size:23.26px;font-family:Poppins-Regular, Poppins;}</style></defs><g id="Layer_3" data-name="Layer 3"><circle class="cls-1" cx="113.42" cy="113.58" r="113.17"/><text class="cls-2" transform="translate(103.24 39.88)">12</text><text class="cls-2" transform="translate(155.11 51.2)">1</text><text class="cls-2" transform="translate(189.1 121.36)">3</text><text class="cls-2" transform="translate(178.68 81.23)">2</text><text class="cls-2" transform="translate(177.45 162.6)">4</text><text class="cls-2" transform="translate(147.12 192.34)">5</text><text class="cls-2" transform="translate(106.26 203.53)">6</text><text class="cls-2" transform="translate(66.53 192.44)">7</text><text class="cls-2" transform="translate(34.64 162.6)">8</text><text class="cls-2" transform="translate(23.56 120.97)">9</text><text class="cls-2" transform="translate(32.84 81.28)">10</text><text class="cls-2" transform="translate(68.47 51.2)">11</text><rect x="112.92" y="5.2" width="1" height="10"/><rect x="111.92" y="4.2" width="3" height="12"/><rect x="60.23" y="18.05" width="3" height="12" transform="translate(-3.76 34.09) rotate(-30)"/><rect x="22.39" y="55.89" width="3" height="12" transform="translate(-41.66 51.63) rotate(-60)"/><rect x="8.53" y="107.58" width="3" height="12" transform="translate(-103.55 123.62) rotate(-90)"/><rect x="22.39" y="159.27" width="3" height="12" transform="translate(-107.3 268.6) rotate(-120)"/><rect x="60.23" y="197.12" width="3" height="12" transform="translate(13.62 409.88) rotate(-150)"/><rect x="111.92" y="210.97" width="3" height="12" transform="translate(226.84 433.93) rotate(-180)"/><rect x="163.61" y="197.12" width="3" height="12" transform="translate(409.66 296.46) rotate(150)"/><rect x="201.45" y="159.27" width="3" height="12" transform="translate(447.56 72.15) rotate(120)"/><rect x="215.3" y="107.58" width="3" height="12" transform="translate(330.38 -103.22) rotate(90)"/><rect x="201.45" y="55.89" width="3" height="12" transform="translate(155.07 -144.81) rotate(60)"/><rect x="163.61" y="18.05" width="3" height="12" transform="translate(34.15 -79.33) rotate(30)"/><rect x="102.11" y="5.77" width="1" height="10" transform="translate(-0.56 10.78) rotate(-6)"/><rect x="91.42" y="7.46" width="1" height="10" transform="translate(-0.58 19.38) rotate(-12)"/><rect x="80.97" y="10.26" width="1" height="10" transform="translate(-0.73 25.92) rotate(-18)"/><rect x="70.87" y="14.14" width="1" height="10" transform="translate(-1.61 30.68) rotate(-24)"/><rect x="61.23" y="19.05" width="1" height="10" transform="translate(-3.76 34.09) rotate(-30)"/><rect x="52.15" y="24.94" width="1" height="10" transform="matrix(0.81, -0.59, 0.59, 0.81, -7.55, 36.67)"/><rect x="43.74" y="31.75" width="1" height="10" transform="translate(-13.23 39.04) rotate(-42)"/><rect x="36.09" y="39.41" width="1" height="10" transform="translate(-20.89 41.88) rotate(-48)"/><rect x="29.28" y="47.82" width="1" height="10" transform="translate(-30.45 45.86) rotate(-54)"/><rect x="23.39" y="56.89" width="1" height="10" transform="translate(-41.66 51.63) rotate(-60)"/><rect x="18.47" y="66.53" width="1" height="10" transform="translate(-54.09 59.77) rotate(-66)"/><rect x="14.59" y="76.64" width="1" height="10" transform="translate(-67.21 70.76) rotate(-72)"/><rect x="11.79" y="87.09" width="1" height="10" transform="translate(-80.34 84.97) rotate(-78)"/><rect x="10.1" y="97.78" width="1" height="10" transform="translate(-92.72 102.58) rotate(-84)"/><rect x="9.53" y="108.58" width="1" height="10" transform="translate(-103.55 123.62) rotate(-90)"/><rect x="10.1" y="119.39" width="1" height="10" transform="translate(-112 147.93) rotate(-96)"/><rect x="11.79" y="130.08" width="1" height="10" transform="translate(-117.28 175.19) rotate(-102)"/><rect x="14.59" y="140.53" width="1" height="10" transform="translate(-118.65 204.86) rotate(-108)"/><rect x="18.47" y="150.63" width="1" height="10" transform="translate(-115.49 236.27) rotate(-114)"/><rect x="23.39" y="160.27" width="1" height="10" transform="translate(-107.3 268.6) rotate(-120)"/><rect x="29.28" y="169.35" width="1" height="10" transform="translate(-93.77 300.92) rotate(-126)"/><rect x="36.09" y="177.76" width="1" height="10" transform="translate(-74.75 332.24) rotate(-132)"/><rect x="43.74" y="185.41" width="1" height="10" transform="translate(-50.29 361.52) rotate(-138)"/><rect x="52.15" y="192.22" width="1" height="10" transform="translate(-20.68 387.72) rotate(-144)"/><rect x="61.23" y="198.12" width="1" height="10" transform="translate(13.62 409.88) rotate(-150)"/><rect x="70.87" y="203.03" width="1" height="10" transform="translate(51.95 427.1) rotate(-156)"/><rect x="80.97" y="206.91" width="1" height="10" transform="translate(93.47 438.62) rotate(-162)"/><rect x="91.42" y="209.71" width="1" height="10" transform="translate(137.2 443.83) rotate(-168)"/><rect x="102.11" y="211.4" width="1" height="10" transform="translate(182.04 442.34) rotate(-174)"/><rect x="112.92" y="211.97" width="1" height="10" transform="translate(226.84 433.93) rotate(-180)"/><rect x="123.72" y="211.4" width="1" height="10" transform="translate(270.39 418.63) rotate(174)"/><rect x="134.41" y="209.71" width="1" height="10" transform="translate(311.52 396.67) rotate(168)"/><rect x="144.86" y="206.91" width="1" height="10" transform="matrix(-0.95, 0.31, -0.31, -0.95, 349.1, 368.52)"/><rect x="154.97" y="203.03" width="1" height="10" transform="translate(382.11 334.84) rotate(156)"/><rect x="164.61" y="198.12" width="1" height="10" transform="translate(409.66 296.46) rotate(150)"/><rect x="173.68" y="192.22" width="1" height="10" transform="translate(431.03 254.39) rotate(144)"/><rect x="182.09" y="185.41" width="1" height="10" transform="translate(445.7 209.74) rotate(138)"/><rect x="189.75" y="177.76" width="1" height="10" transform="translate(453.36 163.67) rotate(132)"/><rect x="196.56" y="169.35" width="1" height="10" transform="translate(453.94 117.41) rotate(126)"/><rect x="202.45" y="160.27" width="1" height="10" transform="translate(447.56 72.15) rotate(120)"/><rect x="207.36" y="150.63" width="1" height="10" transform="translate(434.59 29.04) rotate(114)"/><rect x="211.24" y="140.53" width="1" height="10" transform="translate(415.58 -10.88) rotate(108)"/><rect x="214.04" y="130.08" width="1" height="10" transform="translate(391.27 -46.69) rotate(102)"/><rect x="215.73" y="119.39" width="1" height="10" transform="translate(362.55 -77.66) rotate(96)"/><rect x="216.3" y="108.58" width="1" height="10" transform="translate(330.38 -103.22) rotate(90)"/><rect x="215.73" y="97.78" width="1" height="10" transform="translate(295.85 -123.02) rotate(84)"/><rect x="214.04" y="87.09" width="1" height="10" transform="translate(260.01 -136.91) rotate(78)"/><rect x="211.24" y="76.64" width="1" height="10" transform="translate(223.95 -144.97) rotate(72)"/><rect x="207.36" y="66.53" width="1" height="10" transform="translate(188.67 -147.45) rotate(66)"/><rect x="202.45" y="56.89" width="1" height="10" transform="translate(155.07 -144.81) rotate(60)"/><rect x="196.56" y="47.82" width="1" height="10" transform="translate(123.96 -137.65) rotate(54)"/><rect x="189.75" y="39.41" width="1" height="10" transform="translate(95.95 -126.69) rotate(48)"/><rect x="182.09" y="31.75" width="1" height="10" transform="translate(71.49 -112.74) rotate(42)"/><rect x="173.68" y="24.94" width="1" height="10" transform="translate(50.87 -96.66) rotate(36)"/><rect x="164.61" y="19.05" width="1" height="10" transform="translate(34.15 -79.33) rotate(30)"/><rect x="154.97" y="14.14" width="1" height="10" transform="translate(21.22 -61.58) rotate(24)"/><rect x="144.86" y="10.26" width="1" height="10" transform="translate(11.83 -44.17) rotate(18)"/><rect x="134.41" y="7.46" width="1" height="10" transform="translate(5.54 -27.78) rotate(12)"/><rect x="123.72" y="5.77" width="1" height="10" transform="translate(1.81 -12.93) rotate(6)"/><image width="2400" height="2400" transform="translate(92.84 50.95) scale(0.02)" xlink:href="../../../Map%20voor%20troep/rolex-logo-png-transparent.png"/></g></svg>